<svg width="32" height="32" viewBox="0 0 32 32" xmlns="http://www.w3.org/2000/svg">
  <!-- Neural network icon from Noun Project (scaled for favicon) -->
  <g transform="translate(2, 2) scale(0.25)">
    <path d="M29.21,75.89l7.61-9.11c-.39-.31-.77-.64-1.15-1l-7.61,9.12A8,8,0,0,1,29.21,75.89Z" fill="#2563eb"/>
    <path d="M71.85,82a8.85,8.85,0,0,1,1.18.94l7.58-9.6a8,8,0,0,1-1.18-.93Z" fill="#1d4ed8"/>
    <path d="M85.15,58.51a8.09,8.09,0,0,1,1.49.16l1.75-15.61a8.09,8.09,0,0,1-1.49-.16Z" fill="#3b82f6"/>
    <path d="M61.29,73.13,77.38,69.2A8.65,8.65,0,0,1,77,67.74l-16.36,4-1.19-2.66c-.45.22-.89.44-1.36.63l1.07,2.39L31.1,78.94a8,8,0,0,1,.36,1.46l28.35-6.91,3.69,8.24a9.24,9.24,0,0,1,1.36-.61Z" fill="#1e40af"/>
    <path d="M44.29,29.29l-1.17-3.71a6.81,6.81,0,0,1-1.43.45l1.17,3.71C43.33,29.57,43.8,29.42,44.29,29.29Z" fill="#2563eb"/>
    <path d="M28.62,51.29l-5.7.58a9.06,9.06,0,0,1,.15,1.49l5.7-.58C28.7,52.29,28.66,51.79,28.62,51.29Z" fill="#3b82f6"/>
    <path d="M15.09,45.36,13,19.51a8,8,0,0,1-1.4.13h-.09L13.6,45.49a8,8,0,0,1,1.4-.13Z" fill="#1d4ed8"/>
    <path d="M82.83,29.3a8.87,8.87,0,0,1,1.15-1l-9.2-11.07a8.87,8.87,0,0,1-1.15,1Z" fill="#2563eb"/>
    <path d="M61.4,14.07a8.84,8.84,0,0,1-.33-1.46l-13.4,3A8.84,8.84,0,0,1,48,17.1Z" fill="#1e40af"/>
    <path d="M22.08,14.77,32,17.07a8.73,8.73,0,0,1,.33-1.47L19.56,12.65a8.84,8.84,0,0,1-.33,1.46Z" fill="#3b82f6"/>
    <path d="M50,30A19.91,19.91,0,1,0,69.88,49.91,19.91,0,0,0,50,30ZM62.15,57.52a.76.76,0,0,1-1,.23.74.74,0,0,1-.23-1,12.73,12.73,0,0,0,1.95-6.09h-5c-.13,4.82-1.5,8.94-3.55,11.33a12.69,12.69,0,0,0,4-2.24.75.75,0,1,1,1,1.15,14.24,14.24,0,1,1,2.95-3.35Z" fill="#1e40af"/>
    <path d="M37.3,50.63A12.8,12.8,0,0,0,45.87,62c-2-2.39-3.42-6.5-3.55-11.32Z" fill="#2563eb"/>
    <path d="M54.26,37.8c2.05,2.39,3.41,6.5,3.54,11.33h5A12.79,12.79,0,0,0,54.26,37.8Z" fill="#1d4ed8"/>
    <path d="M46.27,39.77a.75.75,0,0,1-1,.23A.74.74,0,0,1,45,39a10,10,0,0,1,.87-1.18A12.81,12.81,0,0,0,37.3,49.13h5c0-.75.06-1.5.14-2.23a.75.75,0,1,1,1.49.17c-.08.67-.11,1.36-.13,2.06h5.48V37.19A5.54,5.54,0,0,0,46.27,39.77ZM45,42.42c-.18.49-.34,1-.48,1.56a.76.76,0,0,1-.73.56l-.19,0a.76.76,0,0,1-.54-.92c.16-.58.33-1.15.52-1.69a.75.75,0,0,1,1.42.51Z" fill="#3b82f6"/>
    <path d="M50.81,37.18v12H56.3C56.12,43,53.75,37.94,50.81,37.18Z" fill="#1e40af"/>
    <path d="M49.31,62.57V50.63H43.82C44,56.72,46.38,61.81,49.31,62.57Z" fill="#2563eb"/>
    <path d="M50.81,62.57c2.94-.76,5.31-5.85,5.49-11.94H50.81Z" fill="#1d4ed8"/>
    <path d="M83.49,58.65,78,39.85l3.28-1.26a7.68,7.68,0,0,1-.55-1.4L77.62,38.4,75.49,31,72,19.08a9.12,9.12,0,0,1-1.44.42l3.18,11L76.22,39l-6.58,2.53c.2.46.36.93.53,1.41l6.47-2.5,5.41,18.68A7.7,7.7,0,0,1,83.49,58.65Z" fill="#3b82f6"/>
    <path d="M18,60.9a7.75,7.75,0,0,1-1.44.44L20.45,74.1a7.65,7.65,0,0,1,1.43-.44Z" fill="#1e40af"/>
    <circle cx="11.57" cy="11.57" r="6.57" fill="#2563eb"/>
    <path d="M19,46.45a8.65,8.65,0,0,1,1.22.86L31.93,30.83l4-5.7a9.62,9.62,0,0,1-1.22-.87l-3.89,5.49Z" fill="#1d4ed8"/>
    <circle cx="69.07" cy="11.57" r="6.57" transform="translate(31.95 70.96) rotate(-67.5)" fill="#3b82f6"/>
    <circle cx="40" cy="18.14" r="6.57" transform="translate(-3.1 9.68) rotate(-13.28)" fill="#2563eb"/>
    <circle cx="88.53" cy="35" r="6.57" transform="translate(22.32 103.4) rotate(-67.5)" fill="#1e40af"/>
    <circle cx="85" cy="66.57" r="6.57" fill="#1d4ed8"/>
    <circle cx="15" cy="53.43" r="6.57" transform="translate(-33.39 26.26) rotate(-45)" fill="#3b82f6"/>
    <circle cx="67.46" cy="88.76" r="6.57" transform="translate(-43 73.7) rotate(-45)" fill="#2563eb"/>
    <circle cx="23.48" cy="81.57" r="6.57" transform="translate(-12.76 4.81) rotate(-9.22)" fill="#1e40af"/>
  </g>
</svg>
