<svg width="32" height="32" viewBox="0 0 32 32" xmlns="http://www.w3.org/2000/svg">
  <!-- Scaled version of the professional logo for favicon -->
  <g transform="translate(2, 2) scale(0.12)">
    <path d="m 53.194902,258.87031 18.724385,-22.41514 c -0.959617,-0.76255 -1.894589,-1.57467 -2.829561,-2.46045 l -18.724385,22.43969 a 19.683925,19.683925 0 0 1 2.829561,2.4359 z" fill="#2563eb"/>
    <path d="m 158.11023,273.90387 a 21.775343,21.775343 0 0 1 2.9034,2.31288 l 18.65051,-23.62071 a 19.683925,19.683925 0 0 1 -2.9034,-2.28823 z" fill="#1d4ed8"/>
    <path d="m 190.83477,216.10696 a 19.905369,19.905369 0 0 1 3.66614,0.39337 l 4.30585,-38.4082 a 19.905369,19.905369 0 0 1 -3.66613,-0.39338 z" fill="#3b82f6"/>
    <path d="m 132.12745,252.07936 39.58933,-9.66971 a 21.283243,21.283243 0 0 1 -0.93496,-3.5924 l -40.2537,9.84203 -2.92793,-6.54489 c -1.10721,0.54123 -2.18985,1.08255 -3.34624,1.55004 l 2.63268,5.88064 -69.041421,16.82974 a 19.683925,19.683925 0 0 1 0.885316,3.59231 l 69.754955,-17.002 9.07919,20.27449 a 22.734934,22.734934 0 0 1 3.34625,-1.50095 z" fill="#1e40af"/>
    <path d="M 90.299169,144.21147 87.420328,135.083 a 16.755941,16.755941 0 0 1 -3.51846,1.10719 l 2.878747,9.12849 c 1.156491,-0.41849 2.312876,-0.78767 3.518554,-1.10721 z" fill="#2563eb"/>
    <path d="m 51.743164,198.34224 -14.024751,1.4271 a 22.292047,22.292047 0 0 1 0.369184,3.66614 l 14.024751,-1.42711 c -0.17204,-1.20567 -0.270611,-2.4359 -0.369184,-3.66613 z" fill="#3b82f6"/>
    <path d="m 18.452745,183.75152 -5.142438,-63.6037 a 19.683925,19.683925 0 0 1 -3.4446223,0.31991 H 9.6443569 l 5.1424381,63.6037 a 19.683925,19.683925 0 0 1 3.444712,-0.31991 z" fill="#1d4ed8"/>
    <path d="m 185.12647,144.23602 a 21.824553,21.824553 0 0 1 2.82956,-2.46046 l -22.63655,-27.23764 a 21.824553,21.824553 0 0 1 -2.82956,2.46045 z" fill="#2563eb"/>
    <path d="m 132.39816,106.76279 a 21.750738,21.750738 0 0 1 -0.81184,-3.59231 l -32.970518,7.38147 a 21.750738,21.750738 0 0 1 0.811846,3.66606 z" fill="#1e40af"/>
    <path d="m 35.651596,108.48515 24.408094,5.65911 a 21.480084,21.480084 0 0 1 0.811848,-3.61694 l -31.420476,-7.25845 a 21.750738,21.750738 0 0 1 -0.811837,3.5923 z" fill="#3b82f6"/>
    <path d="m 104.34857,145.95837 c -43.664877,-0.0651 -65.586847,52.70526 -34.738161,83.60039 30.848651,30.89525 83.652641,9.05279 83.652641,-34.61205 1e-4,-27.02665 -21.88783,-48.9476 -48.91448,-48.98834 z m 29.30223,68.30544 c 1.28222,-0.84626 0.4036,-0.54681 -0.84439,-0.91601 -0.81929,-0.53471 -2.09267,-0.73187 -1.58966,-1.57142 2.84815,-4.50515 4.49956,-9.66265 4.79788,-14.98437 h -12.30239 c -0.3199,11.85955 -3.69078,21.99683 -8.73472,27.87737 3.58802,-1.22438 11.61161,-8.29934 14.53046,-10.71878 0.80718,-0.70212 0.89088,-0.29853 2.12288,-0.0187 2.04412,0.46962 3.49632,-0.96965 0.0837,3.60365 -14.08371,11.65747 -39.201915,14.97516 -51.925583,1.85478 -12.723375,-13.11991 -13.209457,-33.81426 -1.128023,-47.53399 12.081527,-13.71962 32.671166,-15.8547 47.294986,-4.89291 14.6242,10.96224 18.33525,31.06419 8.55256,46.50917 z" fill="#1e40af"/>
    <path d="m 73.100319,196.71827 a 31.49428,31.49428 0 0 0 21.086409,27.97585 c -4.921008,-5.88064 -8.414917,-15.99327 -8.734727,-27.85283 z" fill="#2563eb"/>
    <path d="m 114.83021,165.15021 c 5.04404,5.88053 8.39028,15.99317 8.71018,27.87737 h 12.30239 a 31.469677,31.469677 0 0 0 -21.01257,-27.87737 z" fill="#1d4ed8"/>
    <path d="m 96.085315,171.21663 a 1.8453681,1.8453681 0 0 1 -2.460458,0.56542 1.8207631,1.8207631 0 0 1 -0.663986,-2.46046 24.604908,24.604908 0 0 1 2.140649,-2.90339 31.518886,31.518886 0 0 0 -21.086408,27.82817 h 12.302484 c 0,-1.8454 0.147864,-3.69069 0.344081,-5.48689 a 1.8453681,1.8453681 0 1 1 3.666137,0.41848 c -0.197143,1.64852 -0.270613,3.34623 -0.319904,5.06859 h 13.48353 v -29.37821 a 13.631118,13.631118 0 0 0 -7.406125,6.34802 z m -3.124817,6.52035 c -0.442649,1.20558 -0.836948,2.46046 -1.181029,3.83836 a 1.8699729,1.8699729 0 0 1 -1.796111,1.37781 h -0.467756 a 1.8699729,1.8699729 0 0 1 -1.328719,-2.26358 c 0.393372,-1.42711 0.811848,-2.82956 1.279521,-4.15827 a 1.8562033,1.8562033 0 0 1 3.493817,1.25487 z" fill="#3b82f6"/>
    <path d="m 106.34155,163.62473 v 29.52588 h 13.50806 c -0.44266,-15.20588 -6.27427,-27.65596 -13.50806,-29.52588 z" fill="#1e40af"/>
    <path d="m 102.65076,226.09657 v -29.3783 H 89.14269 c 0.442652,14.98445 6.298826,27.50836 13.50807,29.3783 z" fill="#2563eb"/>
    <path d="m 106.34155,226.09657 c 7.23379,-1.86994 13.06522,-14.39385 13.50806,-29.3783 h -13.50806 z" fill="#1d4ed8"/>
    <path d="m 186.75035,216.45141 -13.50808,-46.25715 8.07038,-3.10027 a 18.896569,18.896569 0 0 1 -1.35325,-3.44473 l -7.6521,2.97724 -5.24083,-18.20767 -8.58714,-29.32901 a 22.439675,22.439675 0 0 1 -3.54311,1.03336 l 7.82431,27.06542 6.10205,20.91419 -16.19004,6.22509 c 0.49195,1.13175 0.88532,2.28823 1.30406,3.46926 l 15.91944,-6.15125 13.3112,45.96201 a 18.945778,18.945778 0 0 1 3.54311,-1.15649 z" fill="#3b82f6"/>
    <path d="m 25.61279,221.98749 a 19.068802,19.068802 0 0 1 -3.543107,1.08265 l 9.57132,31.39584 a 18.822754,18.822754 0 0 1 3.51846,-1.08256 z" fill="#1e40af"/>
    <circle cx="14.821268" cy="106.25069" r="10.526293" fill="#2563eb"/>
    <path d="m 28.07325,186.43348 a 21.283243,21.283243 0 0 1 3.001789,2.11602 l 28.812435,-40.54896 9.841966,-14.02475 a 23.66992,23.66992 0 0 1 -3.001789,-2.14065 l -9.571354,13.50807 z" fill="#1d4ed8"/>
    <circle cx="-38.4063" cy="178.98535" r="12.507607" transform="rotate(-67.499999)" fill="#3b82f6"/>
    <circle cx="49.299244" cy="134.92613" r="8.6973848" transform="rotate(-13.279999)" fill="#2563eb"/>
    <circle cx="-74.384995" cy="242.75421" r="11.897973" transform="rotate(-67.499999)" fill="#1e40af"/>
    <circle cx="188.63675" cy="234.71922" r="13.117245" fill="#1d4ed8"/>
    <circle cx="-129.36841" cy="158.80606" r="11.440746" transform="rotate(-45)" fill="#3b82f6"/>
    <circle cx="-96.746323" cy="307.0267" r="10.526293" transform="rotate(-45)" fill="#2563eb"/>
    <circle cx="-1.0376738" cy="272.37369" r="10.221474" transform="rotate(-9.2199992)" fill="#1e40af"/>
  </g>
</svg>
