<?xml version="1.0" encoding="UTF-8" standalone="no"?>
<svg
   data-name="Layer 38"
   viewBox="0 0 100 125"
   x="0px"
   y="0px"
   version="1.1"
   id="svg27"
   sodipodi:docname="noun-neural-network-4454442.svg"
   inkscape:version="1.4 (e7c3feb1, 2024-10-09)"
   xmlns:inkscape="http://www.inkscape.org/namespaces/inkscape"
   xmlns:sodipodi="http://sodipodi.sourceforge.net/DTD/sodipodi-0.dtd"
   xmlns="http://www.w3.org/2000/svg"
   xmlns:svg="http://www.w3.org/2000/svg">
  <defs
     id="defs27" />
  <sodipodi:namedview
     id="namedview27"
     pagecolor="#505050"
     bordercolor="#eeeeee"
     borderopacity="1"
     inkscape:showpageshadow="0"
     inkscape:pageopacity="0"
     inkscape:pagecheckerboard="0"
     inkscape:deskcolor="#505050"
     inkscape:zoom="11.415532"
     inkscape:cx="60.662964"
     inkscape:cy="67.53956"
     inkscape:window-width="3840"
     inkscape:window-height="2045"
     inkscape:window-x="0"
     inkscape:window-y="25"
     inkscape:window-maximized="1"
     inkscape:current-layer="svg27" />
  <path
     d="M29.21,75.89l7.61-9.11c-.39-.31-.77-.64-1.15-1l-7.61,9.12A8,8,0,0,1,29.21,75.89Z"
     id="path1" />
  <path
     d="M71.85,82a8.85,8.85,0,0,1,1.18.94l7.58-9.6a8,8,0,0,1-1.18-.93Z"
     id="path2" />
  <path
     d="M85.15,58.51a8.09,8.09,0,0,1,1.49.16l1.75-15.61a8.09,8.09,0,0,1-1.49-.16Z"
     id="path3" />
  <path
     d="M61.29,73.13,77.38,69.2A8.65,8.65,0,0,1,77,67.74l-16.36,4-1.19-2.66c-.45.22-.89.44-1.36.63l1.07,2.39L31.1,78.94a8,8,0,0,1,.36,1.46l28.35-6.91,3.69,8.24a9.24,9.24,0,0,1,1.36-.61Z"
     id="path4" />
  <path
     d="M44.29,29.29l-1.17-3.71a6.81,6.81,0,0,1-1.43.45l1.17,3.71C43.33,29.57,43.8,29.42,44.29,29.29Z"
     id="path5" />
  <path
     d="M28.62,51.29l-5.7.58a9.06,9.06,0,0,1,.15,1.49l5.7-.58C28.7,52.29,28.66,51.79,28.62,51.29Z"
     id="path6" />
  <path
     d="M15.09,45.36,13,19.51a8,8,0,0,1-1.4.13h-.09L13.6,45.49a8,8,0,0,1,1.4-.13Z"
     id="path7" />
  <path
     d="M82.83,29.3a8.87,8.87,0,0,1,1.15-1l-9.2-11.07a8.87,8.87,0,0,1-1.15,1Z"
     id="path8" />
  <path
     d="M61.4,14.07a8.84,8.84,0,0,1-.33-1.46l-13.4,3A8.84,8.84,0,0,1,48,17.1Z"
     id="path9" />
  <path
     d="M22.08,14.77,32,17.07a8.73,8.73,0,0,1,.33-1.47L19.56,12.65a8.84,8.84,0,0,1-.33,1.46Z"
     id="path10" />
  <path
     d="M 50,30 C 32.253638,29.97326 23.344016,51.420621 35.881612,63.977138 48.419208,76.533654 69.87998,67.656383 69.88,49.91 69.880012,38.925716 60.984272,30.016551 50,30 Z m 11.9091,27.7609 c 0.521137,-0.34387 0.16384,-0.22216 -0.343,-0.37225 C 61.233252,57.171222 60.71559,57.090997 60.92,56.75 c 1.157575,-1.83102 1.82875,-3.927151 1.95,-6.09 h -5 c -0.13,4.82 -1.5,8.94 -3.55,11.33 1.458268,-0.497632 4.719227,-3.373033 5.905511,-4.356351 0.328242,-0.285428 0.362253,-0.121431 0.862787,-0.0065 0.830812,0.19081 1.421015,-0.39411 0.03523,1.464577 -5.723937,4.737888 -15.932534,6.086275 -21.103753,0.753861 -5.171058,-5.332248 -5.36863,-13.742915 -0.458429,-19.318906 4.9102,-5.57599 13.278316,-6.443737 19.221752,-1.988596 5.94362,4.455281 7.451865,12.625197 3.475954,18.902391 z"
     id="path11"
     sodipodi:nodetypes="sssscccccccscssscc" />
  <path
     d="M37.3,50.63A12.8,12.8,0,0,0,45.87,62c-2-2.39-3.42-6.5-3.55-11.32Z"
     id="path12" />
  <path
     d="M54.26,37.8c2.05,2.39,3.41,6.5,3.54,11.33h5A12.79,12.79,0,0,0,54.26,37.8Z"
     id="path13" />
  <path
     d="m 46.641655,40.26554 a 0.75,0.75 0 0 1 -1,0.23 0.74,0.74 0 0 1 -0.27,-1 10,10 0 0 1 0.87,-1.18 12.81,12.81 0 0 0 -8.57,11.31 h 5 c 0,-0.75 0.06,-1.5 0.14,-2.23 a 0.75,0.75 0 1 1 1.49,0.17 c -0.08,0.67 -0.11,1.36 -0.13,2.06 h 5.48 v -11.94 a 5.54,5.54 0 0 0 -3.01,2.58 z m -1.27,2.65 c -0.18,0.49 -0.34,1 -0.48,1.56 a 0.76,0.76 0 0 1 -0.73,0.56 h -0.19 a 0.76,0.76 0 0 1 -0.54,-0.92 c 0.16,-0.58 0.33,-1.15 0.52,-1.69 a 0.75440374,0.75440374 0 0 1 1.42,0.51 z"
     id="path14" />
  <path
     d="M50.81,37.18v12H56.3C56.12,43,53.75,37.94,50.81,37.18Z"
     id="path15" />
  <path
     d="M49.31,62.57V50.63H43.82C44,56.72,46.38,61.81,49.31,62.57Z"
     id="path16" />
  <path
     d="M50.81,62.57c2.94-.76,5.31-5.85,5.49-11.94H50.81Z"
     id="path17" />
  <path
     d="M83.49,58.65,78,39.85l3.28-1.26a7.68,7.68,0,0,1-.55-1.4L77.62,38.4,75.49,31,72,19.08a9.12,9.12,0,0,1-1.44.42l3.18,11L76.22,39l-6.58,2.53c.2.46.36.93.53,1.41l6.47-2.5,5.41,18.68A7.7,7.7,0,0,1,83.49,58.65Z"
     id="path18" />
  <path
     d="M18,60.9a7.75,7.75,0,0,1-1.44.44L20.45,74.1a7.65,7.65,0,0,1,1.43-.44Z"
     id="path19" />
  <circle
     cx="13.614101"
     cy="13.861872"
     r="4.2781272"
     id="circle19"
     style="stroke-width:0.651161" />
  <path
     d="M19,46.45a8.65,8.65,0,0,1,1.22.86L31.93,30.83l4-5.7a9.62,9.62,0,0,1-1.22-.87l-3.89,5.49Z"
     id="path20" />
  <circle
     cx="14.384422"
     cy="68.535751"
     r="5.0833797"
     transform="rotate(-67.5)"
     id="circle20"
     style="stroke-width:0.773726" />
  <circle
     cx="34.159069"
     cy="28.043911"
     r="3.534817"
     transform="rotate(-13.28)"
     id="circle21"
     style="stroke-width:0.538024" />
  <circle
     cx="-0.23815024"
     cy="94.45295"
     r="4.8356099"
     transform="rotate(-67.5)"
     id="circle22"
     style="stroke-width:0.736014" />
  <circle
     cx="84.256691"
     cy="66.074463"
     r="5.3311501"
     id="circle23"
     style="stroke-width:0.811438" />
  <circle
     cx="-26.478121"
     cy="49.176727"
     r="4.6497822"
     transform="rotate(-45)"
     id="circle24"
     style="stroke-width:0.707729" />
  <circle
     cx="-13.219764"
     cy="109.41698"
     r="4.2781272"
     transform="rotate(-45)"
     id="circle25"
     style="stroke-width:0.651161" />
  <circle
     cx="11.768559"
     cy="82.973091"
     r="4.154242"
     transform="rotate(-9.22)"
     id="circle26"
     style="stroke-width:0.632305" />
  <text
     xml:space="preserve"
     style="font-size:74.6667px;font-family:Copperplate;-inkscape-font-specification:'Copperplate, Normal';text-align:start;writing-mode:lr-tb;direction:ltr;text-anchor:start;fill:#ffffff;stroke:#000000;stroke-width:0.79748"
     x="43.979187"
     y="45.713577"
     id="text27"><tspan
       sodipodi:role="line"
       id="tspan27"></tspan></text>
</svg>
